<svg xmlns="http://www.w3.org/2000/svg" xmlns:xlink="http://www.w3.org/1999/xlink" width="300" zoomAndPan="magnify" viewBox="0 0 224.87999 149.999998" height="200" preserveAspectRatio="xMidYMid meet" version="1.0"><defs><g/></defs><g fill="#000000" fill-opacity="1"><g transform="translate(6.828302, 87.236151)"><g><path d="M 1 -33.328125 L 10 -33.328125 L 10 -33 C 9.039062 -33 8.34375 -32.707031 7.90625 -32.125 C 7.476562 -31.550781 7.207031 -30.613281 7.09375 -29.3125 C 6.988281 -28.007812 6.9375 -26.257812 6.9375 -24.0625 L 6.9375 -0.328125 L 11.171875 -0.328125 C 11.703125 -0.328125 12.394531 -0.34375 13.25 -0.375 C 14.101562 -0.414062 15.03125 -0.488281 16.03125 -0.59375 C 17.03125 -0.707031 18.023438 -0.878906 19.015625 -1.109375 C 20.003906 -1.347656 20.914062 -1.65625 21.75 -2.03125 C 22.582031 -2.40625 23.25 -2.875 23.75 -3.4375 C 24.25 -4.007812 24.5 -4.695312 24.5 -5.5 L 24.828125 -5.5 L 24.828125 0 L 1 0 L 1 -0.328125 C 1.957031 -0.328125 2.648438 -0.613281 3.078125 -1.1875 C 3.515625 -1.769531 3.785156 -2.71875 3.890625 -4.03125 C 4.003906 -5.34375 4.0625 -7.085938 4.0625 -9.265625 L 4.0625 -24.0625 C 4.0625 -26.257812 4.003906 -28.007812 3.890625 -29.3125 C 3.785156 -30.613281 3.515625 -31.550781 3.078125 -32.125 C 2.648438 -32.707031 1.957031 -33 1 -33 Z M 1 -33.328125 "/></g></g></g><g fill="#000000" fill-opacity="1"><g transform="translate(32.65138, 87.236151)"><g><path d="M 10 0 L 1 0 L 1 -0.328125 C 1.957031 -0.328125 2.648438 -0.613281 3.078125 -1.1875 C 3.515625 -1.769531 3.785156 -2.71875 3.890625 -4.03125 C 4.003906 -5.34375 4.0625 -7.085938 4.0625 -9.265625 L 4.0625 -14.328125 C 4.0625 -16.523438 4.003906 -18.273438 3.890625 -19.578125 C 3.785156 -20.878906 3.515625 -21.816406 3.078125 -22.390625 C 2.648438 -22.972656 1.957031 -23.265625 1 -23.265625 L 1 -23.59375 L 6.9375 -23.59375 L 6.9375 -9.265625 C 6.9375 -7.085938 6.988281 -5.34375 7.09375 -4.03125 C 7.207031 -2.71875 7.476562 -1.769531 7.90625 -1.1875 C 8.34375 -0.613281 9.039062 -0.328125 10 -0.328125 Z M 3.09375 -27.96875 C 3.09375 -28.582031 3.3125 -29.101562 3.75 -29.53125 C 4.1875 -29.96875 4.710938 -30.1875 5.328125 -30.1875 C 5.953125 -30.1875 6.476562 -29.96875 6.90625 -29.53125 C 7.34375 -29.101562 7.5625 -28.582031 7.5625 -27.96875 C 7.5625 -27.34375 7.34375 -26.8125 6.90625 -26.375 C 6.476562 -25.945312 5.953125 -25.734375 5.328125 -25.734375 C 4.710938 -25.734375 4.1875 -25.945312 3.75 -26.375 C 3.3125 -26.8125 3.09375 -27.34375 3.09375 -27.96875 Z M 3.09375 -27.96875 "/></g></g></g><g fill="#000000" fill-opacity="1"><g transform="translate(43.313811, 87.236151)"><g><path d="M 1 0 L 1 -0.328125 C 1.957031 -0.328125 2.648438 -0.613281 3.078125 -1.1875 C 3.515625 -1.769531 3.785156 -2.71875 3.890625 -4.03125 C 4.003906 -5.34375 4.0625 -7.085938 4.0625 -9.265625 L 4.0625 -26.296875 C 4.0625 -27.296875 4.289062 -28.253906 4.75 -29.171875 C 5.207031 -30.097656 5.835938 -30.925781 6.640625 -31.65625 C 7.453125 -32.394531 8.398438 -32.972656 9.484375 -33.390625 C 10.578125 -33.816406 11.757812 -34.03125 13.03125 -34.03125 C 14.070312 -34.03125 15.015625 -33.945312 15.859375 -33.78125 C 16.703125 -33.613281 17.425781 -33.441406 18.03125 -33.265625 L 18.03125 -29.53125 L 17.703125 -29.53125 C 17.523438 -30.632812 16.960938 -31.566406 16.015625 -32.328125 C 15.066406 -33.085938 13.640625 -33.46875 11.734375 -33.46875 C 10.554688 -33.46875 9.640625 -33.207031 8.984375 -32.6875 C 8.328125 -32.175781 7.851562 -31.539062 7.5625 -30.78125 C 7.269531 -30.03125 7.09375 -29.257812 7.03125 -28.46875 C 6.96875 -27.6875 6.9375 -27.019531 6.9375 -26.46875 L 6.9375 -21.703125 C 7.15625 -22.273438 7.519531 -22.769531 8.03125 -23.1875 C 8.539062 -23.613281 9.175781 -23.828125 9.9375 -23.828125 C 10.53125 -23.828125 11.039062 -23.765625 11.46875 -23.640625 C 11.90625 -23.523438 12.375 -23.40625 12.875 -23.28125 C 13.375 -23.15625 14.015625 -23.09375 14.796875 -23.09375 C 15.066406 -23.09375 15.316406 -23.140625 15.546875 -23.234375 C 15.773438 -23.335938 15.925781 -23.515625 16 -23.765625 L 16.09375 -23.765625 C 16.25 -23.054688 16.085938 -22.46875 15.609375 -22 C 15.128906 -21.53125 14.535156 -21.304688 13.828125 -21.328125 C 13.273438 -21.347656 12.738281 -21.441406 12.21875 -21.609375 C 11.695312 -21.773438 11.160156 -21.941406 10.609375 -22.109375 C 10.066406 -22.273438 9.5 -22.359375 8.90625 -22.359375 C 8.320312 -22.359375 7.847656 -22.191406 7.484375 -21.859375 C 7.117188 -21.523438 6.9375 -20.992188 6.9375 -20.265625 L 6.9375 -9.265625 C 6.9375 -7.085938 6.988281 -5.34375 7.09375 -4.03125 C 7.207031 -2.71875 7.476562 -1.769531 7.90625 -1.1875 C 8.34375 -0.613281 9.039062 -0.328125 10 -0.328125 L 10 0 Z M 1 0 "/></g></g></g><g fill="#000000" fill-opacity="1"><g transform="translate(61.339983, 87.236151)"><g><path d="M 13.4375 0.671875 C 11.632812 0.671875 10.023438 0.347656 8.609375 -0.296875 C 7.203125 -0.941406 6.007812 -1.835938 5.03125 -2.984375 C 4.050781 -4.128906 3.300781 -5.457031 2.78125 -6.96875 C 2.257812 -8.476562 2 -10.085938 2 -11.796875 C 2 -13.503906 2.257812 -15.113281 2.78125 -16.625 C 3.300781 -18.132812 4.050781 -19.460938 5.03125 -20.609375 C 6.007812 -21.753906 7.203125 -22.648438 8.609375 -23.296875 C 10.023438 -23.941406 11.632812 -24.265625 13.4375 -24.265625 C 15.226562 -24.265625 16.769531 -24.03125 18.0625 -23.5625 C 19.351562 -23.09375 20.410156 -22.476562 21.234375 -21.71875 C 22.054688 -20.96875 22.660156 -20.148438 23.046875 -19.265625 C 23.429688 -18.378906 23.625 -17.507812 23.625 -16.65625 C 23.601562 -14.769531 23.070312 -13.289062 22.03125 -12.21875 C 20.988281 -11.15625 19.507812 -10.625 17.59375 -10.625 C 16.257812 -10.625 15.117188 -10.773438 14.171875 -11.078125 C 13.234375 -11.378906 12.398438 -11.722656 11.671875 -12.109375 C 10.953125 -12.503906 10.253906 -12.847656 9.578125 -13.140625 C 8.898438 -13.441406 8.148438 -13.59375 7.328125 -13.59375 C 6.929688 -13.59375 6.570312 -13.488281 6.25 -13.28125 C 5.925781 -13.070312 5.742188 -12.898438 5.703125 -12.765625 L 5.5625 -12.796875 C 5.5625 -13.484375 5.851562 -14.097656 6.4375 -14.640625 C 7.03125 -15.191406 7.90625 -15.46875 9.0625 -15.46875 C 9.925781 -15.46875 10.75 -15.242188 11.53125 -14.796875 C 12.3125 -14.347656 13.054688 -13.828125 13.765625 -13.234375 C 14.472656 -12.648438 15.160156 -12.132812 15.828125 -11.6875 C 16.492188 -11.25 17.160156 -11.03125 17.828125 -11.03125 C 18.648438 -11.03125 19.328125 -11.335938 19.859375 -11.953125 C 20.390625 -12.578125 20.757812 -13.375 20.96875 -14.34375 C 21.1875 -15.3125 21.207031 -16.34375 21.03125 -17.4375 C 20.851562 -18.539062 20.460938 -19.578125 19.859375 -20.546875 C 19.265625 -21.515625 18.429688 -22.304688 17.359375 -22.921875 C 16.296875 -23.546875 14.960938 -23.859375 13.359375 -23.859375 C 12.003906 -23.859375 10.835938 -23.597656 9.859375 -23.078125 C 8.890625 -22.554688 8.082031 -21.863281 7.4375 -21 C 6.789062 -20.132812 6.269531 -19.175781 5.875 -18.125 C 5.488281 -17.082031 5.21875 -16.015625 5.0625 -14.921875 C 4.90625 -13.835938 4.835938 -12.828125 4.859375 -11.890625 C 4.890625 -10.335938 5.125 -8.875 5.5625 -7.5 C 6.007812 -6.125 6.648438 -4.90625 7.484375 -3.84375 C 8.316406 -2.789062 9.332031 -1.960938 10.53125 -1.359375 C 11.726562 -0.765625 13.09375 -0.46875 14.625 -0.46875 C 15.289062 -0.46875 16.035156 -0.566406 16.859375 -0.765625 C 17.679688 -0.960938 18.507812 -1.285156 19.34375 -1.734375 C 20.175781 -2.179688 20.941406 -2.769531 21.640625 -3.5 C 22.347656 -4.226562 22.898438 -5.128906 23.296875 -6.203125 L 23.765625 -6 C 22.898438 -4.019531 21.582031 -2.410156 19.8125 -1.171875 C 18.039062 0.0546875 15.914062 0.671875 13.4375 0.671875 Z M 13.4375 0.671875 "/></g></g></g><g fill="#000000" fill-opacity="1"><g transform="translate(87.096415, 87.236151)"><g><path d="M 2 -16.65625 C 2 -19.175781 2.375 -21.484375 3.125 -23.578125 C 3.882812 -25.679688 4.941406 -27.515625 6.296875 -29.078125 C 7.648438 -30.640625 9.226562 -31.847656 11.03125 -32.703125 C 12.832031 -33.566406 14.765625 -34 16.828125 -34 C 18.867188 -34 20.640625 -33.851562 22.140625 -33.5625 C 23.640625 -33.269531 25.035156 -32.90625 26.328125 -32.46875 L 26.328125 -28 L 26 -28 C 26 -28 25.910156 -28.1875 25.734375 -28.5625 C 25.554688 -28.9375 25.253906 -29.398438 24.828125 -29.953125 C 24.410156 -30.515625 23.847656 -31.070312 23.140625 -31.625 C 22.441406 -32.1875 21.570312 -32.65625 20.53125 -33.03125 C 19.488281 -33.40625 18.253906 -33.59375 16.828125 -33.59375 C 15.097656 -33.59375 13.507812 -33.171875 12.0625 -32.328125 C 10.613281 -31.484375 9.363281 -30.300781 8.3125 -28.78125 C 7.257812 -27.257812 6.441406 -25.46875 5.859375 -23.40625 C 5.285156 -21.351562 5 -19.101562 5 -16.65625 C 5 -14.238281 5.304688 -11.992188 5.921875 -9.921875 C 6.546875 -7.859375 7.398438 -6.066406 8.484375 -4.546875 C 9.578125 -3.023438 10.84375 -1.84375 12.28125 -1 C 13.71875 -0.15625 15.234375 0.265625 16.828125 0.265625 C 18.296875 0.265625 19.554688 0 20.609375 -0.53125 C 21.671875 -1.0625 22.546875 -1.691406 23.234375 -2.421875 C 23.921875 -3.160156 24.425781 -3.875 24.75 -4.5625 C 25.070312 -5.25 25.234375 -5.738281 25.234375 -6.03125 L 25.234375 -10.734375 C 25.234375 -12.046875 25.003906 -13.078125 24.546875 -13.828125 C 24.085938 -14.585938 23.476562 -15.144531 22.71875 -15.5 C 21.96875 -15.851562 21.117188 -16.078125 20.171875 -16.171875 C 19.234375 -16.273438 18.269531 -16.316406 17.28125 -16.296875 C 16.289062 -16.273438 15.351562 -16.265625 14.46875 -16.265625 C 13.664062 -16.265625 12.9375 -16.3125 12.28125 -16.40625 C 11.625 -16.507812 11.097656 -16.726562 10.703125 -17.0625 C 10.316406 -17.394531 10.125 -17.882812 10.125 -18.53125 C 10.125 -19.488281 10.40625 -20.269531 10.96875 -20.875 C 11.539062 -21.488281 12.222656 -21.953125 13.015625 -22.265625 C 13.804688 -22.578125 14.535156 -22.734375 15.203125 -22.734375 C 16.441406 -22.734375 17.566406 -22.582031 18.578125 -22.28125 C 19.585938 -21.976562 20.539062 -21.617188 21.4375 -21.203125 C 22.34375 -20.796875 23.257812 -20.441406 24.1875 -20.140625 C 25.125 -19.847656 26.128906 -19.703125 27.203125 -19.703125 C 27.972656 -19.703125 28.53125 -19.785156 28.875 -19.953125 C 29.21875 -20.117188 29.425781 -20.285156 29.5 -20.453125 C 29.582031 -20.617188 29.625 -20.703125 29.625 -20.703125 C 29.800781 -20.003906 29.742188 -19.410156 29.453125 -18.921875 C 29.171875 -18.441406 28.738281 -18.070312 28.15625 -17.8125 C 27.582031 -17.5625 26.953125 -17.4375 26.265625 -17.4375 C 25.265625 -17.4375 24.238281 -17.59375 23.1875 -17.90625 C 22.144531 -18.226562 21.113281 -18.597656 20.09375 -19.015625 C 19.070312 -19.441406 18.082031 -19.816406 17.125 -20.140625 C 16.175781 -20.460938 15.289062 -20.625 14.46875 -20.625 C 13.445312 -20.625 12.53125 -20.441406 11.71875 -20.078125 C 10.90625 -19.710938 10.5 -19.140625 10.5 -18.359375 C 10.5 -17.804688 10.722656 -17.398438 11.171875 -17.140625 C 11.628906 -16.890625 12.253906 -16.734375 13.046875 -16.671875 C 13.835938 -16.617188 14.726562 -16.601562 15.71875 -16.625 C 16.707031 -16.644531 17.722656 -16.65625 18.765625 -16.65625 C 19.898438 -16.65625 21.019531 -16.59375 22.125 -16.46875 C 23.238281 -16.351562 24.242188 -16.09375 25.140625 -15.6875 C 26.046875 -15.289062 26.765625 -14.695312 27.296875 -13.90625 C 27.828125 -13.125 28.09375 -12.066406 28.09375 -10.734375 L 28.09375 -5.9375 C 26.832031 -3.84375 25.234375 -2.21875 23.296875 -1.0625 C 21.359375 0.09375 19.203125 0.671875 16.828125 0.671875 C 14.765625 0.671875 12.832031 0.242188 11.03125 -0.609375 C 9.226562 -1.472656 7.648438 -2.6875 6.296875 -4.25 C 4.941406 -5.8125 3.882812 -7.648438 3.125 -9.765625 C 2.375 -11.878906 2 -14.175781 2 -16.65625 Z M 2 -16.65625 "/></g></g></g><g fill="#000000" fill-opacity="1"><g transform="translate(117.784226, 87.236151)"><g><path d="M 10 0 L 1 0 L 1 -0.328125 C 1.957031 -0.328125 2.648438 -0.613281 3.078125 -1.1875 C 3.515625 -1.769531 3.785156 -2.71875 3.890625 -4.03125 C 4.003906 -5.34375 4.0625 -7.085938 4.0625 -9.265625 L 4.0625 -14.328125 C 4.0625 -16.523438 4.003906 -18.273438 3.890625 -19.578125 C 3.785156 -20.878906 3.515625 -21.816406 3.078125 -22.390625 C 2.648438 -22.972656 1.957031 -23.265625 1 -23.265625 L 1 -23.59375 L 4.859375 -23.59375 C 6.773438 -23.59375 8.765625 -23.703125 10.828125 -23.921875 C 12.898438 -24.148438 14.859375 -24.265625 16.703125 -24.265625 C 18.191406 -24.265625 19.421875 -23.90625 20.390625 -23.1875 C 21.367188 -22.476562 21.859375 -21.484375 21.859375 -20.203125 C 21.859375 -19.304688 21.617188 -18.539062 21.140625 -17.90625 C 20.671875 -17.28125 19.957031 -16.96875 19 -16.96875 C 18.53125 -16.96875 18.101562 -17.101562 17.71875 -17.375 C 17.34375 -17.65625 17.15625 -18.03125 17.15625 -18.5 C 17.625 -18.519531 18.039062 -18.769531 18.40625 -19.25 C 18.78125 -19.726562 18.96875 -20.3125 18.96875 -21 C 18.96875 -21.769531 18.671875 -22.425781 18.078125 -22.96875 C 17.492188 -23.519531 16.597656 -23.796875 15.390625 -23.796875 C 14.878906 -23.796875 14.238281 -23.769531 13.46875 -23.71875 C 12.707031 -23.675781 11.914062 -23.609375 11.09375 -23.515625 C 10.269531 -23.429688 9.484375 -23.332031 8.734375 -23.21875 C 7.992188 -23.113281 7.394531 -22.984375 6.9375 -22.828125 L 6.9375 -9.265625 C 6.9375 -7.085938 6.988281 -5.34375 7.09375 -4.03125 C 7.207031 -2.71875 7.476562 -1.769531 7.90625 -1.1875 C 8.34375 -0.613281 9.039062 -0.328125 10 -0.328125 Z M 10 0 "/></g></g></g><g fill="#000000" fill-opacity="1"><g transform="translate(140.308612, 87.236151)"><g><path d="M 13.4375 0.671875 C 11.632812 0.671875 10.023438 0.347656 8.609375 -0.296875 C 7.203125 -0.941406 6.007812 -1.835938 5.03125 -2.984375 C 4.050781 -4.128906 3.300781 -5.457031 2.78125 -6.96875 C 2.257812 -8.476562 2 -10.085938 2 -11.796875 C 2 -13.503906 2.257812 -15.113281 2.78125 -16.625 C 3.300781 -18.132812 4.050781 -19.460938 5.03125 -20.609375 C 6.007812 -21.753906 7.203125 -22.648438 8.609375 -23.296875 C 10.023438 -23.941406 11.632812 -24.265625 13.4375 -24.265625 C 15.226562 -24.265625 16.769531 -24.03125 18.0625 -23.5625 C 19.351562 -23.09375 20.410156 -22.476562 21.234375 -21.71875 C 22.054688 -20.96875 22.660156 -20.148438 23.046875 -19.265625 C 23.429688 -18.378906 23.625 -17.507812 23.625 -16.65625 C 23.601562 -14.769531 23.070312 -13.289062 22.03125 -12.21875 C 20.988281 -11.15625 19.507812 -10.625 17.59375 -10.625 C 16.257812 -10.625 15.117188 -10.773438 14.171875 -11.078125 C 13.234375 -11.378906 12.398438 -11.722656 11.671875 -12.109375 C 10.953125 -12.503906 10.253906 -12.847656 9.578125 -13.140625 C 8.898438 -13.441406 8.148438 -13.59375 7.328125 -13.59375 C 6.929688 -13.59375 6.570312 -13.488281 6.25 -13.28125 C 5.925781 -13.070312 5.742188 -12.898438 5.703125 -12.765625 L 5.5625 -12.796875 C 5.5625 -13.484375 5.851562 -14.097656 6.4375 -14.640625 C 7.03125 -15.191406 7.90625 -15.46875 9.0625 -15.46875 C 9.925781 -15.46875 10.75 -15.242188 11.53125 -14.796875 C 12.3125 -14.347656 13.054688 -13.828125 13.765625 -13.234375 C 14.472656 -12.648438 15.160156 -12.132812 15.828125 -11.6875 C 16.492188 -11.25 17.160156 -11.03125 17.828125 -11.03125 C 18.648438 -11.03125 19.328125 -11.335938 19.859375 -11.953125 C 20.390625 -12.578125 20.757812 -13.375 20.96875 -14.34375 C 21.1875 -15.3125 21.207031 -16.34375 21.03125 -17.4375 C 20.851562 -18.539062 20.460938 -19.578125 19.859375 -20.546875 C 19.265625 -21.515625 18.429688 -22.304688 17.359375 -22.921875 C 16.296875 -23.546875 14.960938 -23.859375 13.359375 -23.859375 C 12.003906 -23.859375 10.835938 -23.597656 9.859375 -23.078125 C 8.890625 -22.554688 8.082031 -21.863281 7.4375 -21 C 6.789062 -20.132812 6.269531 -19.175781 5.875 -18.125 C 5.488281 -17.082031 5.21875 -16.015625 5.0625 -14.921875 C 4.90625 -13.835938 4.835938 -12.828125 4.859375 -11.890625 C 4.890625 -10.335938 5.125 -8.875 5.5625 -7.5 C 6.007812 -6.125 6.648438 -4.90625 7.484375 -3.84375 C 8.316406 -2.789062 9.332031 -1.960938 10.53125 -1.359375 C 11.726562 -0.765625 13.09375 -0.46875 14.625 -0.46875 C 15.289062 -0.46875 16.035156 -0.566406 16.859375 -0.765625 C 17.679688 -0.960938 18.507812 -1.285156 19.34375 -1.734375 C 20.175781 -2.179688 20.941406 -2.769531 21.640625 -3.5 C 22.347656 -4.226562 22.898438 -5.128906 23.296875 -6.203125 L 23.765625 -6 C 22.898438 -4.019531 21.582031 -2.410156 19.8125 -1.171875 C 18.039062 0.0546875 15.914062 0.671875 13.4375 0.671875 Z M 13.4375 0.671875 "/></g></g></g><g fill="#000000" fill-opacity="1"><g transform="translate(166.065044, 87.236151)"><g><path d="M 13.4375 0.671875 C 11.632812 0.671875 10.023438 0.347656 8.609375 -0.296875 C 7.203125 -0.941406 6.007812 -1.835938 5.03125 -2.984375 C 4.050781 -4.128906 3.300781 -5.457031 2.78125 -6.96875 C 2.257812 -8.476562 2 -10.085938 2 -11.796875 C 2 -13.503906 2.257812 -15.113281 2.78125 -16.625 C 3.300781 -18.132812 4.050781 -19.460938 5.03125 -20.609375 C 6.007812 -21.753906 7.203125 -22.648438 8.609375 -23.296875 C 10.023438 -23.941406 11.632812 -24.265625 13.4375 -24.265625 C 15.226562 -24.265625 16.769531 -24.03125 18.0625 -23.5625 C 19.351562 -23.09375 20.410156 -22.476562 21.234375 -21.71875 C 22.054688 -20.96875 22.660156 -20.148438 23.046875 -19.265625 C 23.429688 -18.378906 23.625 -17.507812 23.625 -16.65625 C 23.601562 -14.769531 23.070312 -13.289062 22.03125 -12.21875 C 20.988281 -11.15625 19.507812 -10.625 17.59375 -10.625 C 16.257812 -10.625 15.117188 -10.773438 14.171875 -11.078125 C 13.234375 -11.378906 12.398438 -11.722656 11.671875 -12.109375 C 10.953125 -12.503906 10.253906 -12.847656 9.578125 -13.140625 C 8.898438 -13.441406 8.148438 -13.59375 7.328125 -13.59375 C 6.929688 -13.59375 6.570312 -13.488281 6.25 -13.28125 C 5.925781 -13.070312 5.742188 -12.898438 5.703125 -12.765625 L 5.5625 -12.796875 C 5.5625 -13.484375 5.851562 -14.097656 6.4375 -14.640625 C 7.03125 -15.191406 7.90625 -15.46875 9.0625 -15.46875 C 9.925781 -15.46875 10.75 -15.242188 11.53125 -14.796875 C 12.3125 -14.347656 13.054688 -13.828125 13.765625 -13.234375 C 14.472656 -12.648438 15.160156 -12.132812 15.828125 -11.6875 C 16.492188 -11.25 17.160156 -11.03125 17.828125 -11.03125 C 18.648438 -11.03125 19.328125 -11.335938 19.859375 -11.953125 C 20.390625 -12.578125 20.757812 -13.375 20.96875 -14.34375 C 21.1875 -15.3125 21.207031 -16.34375 21.03125 -17.4375 C 20.851562 -18.539062 20.460938 -19.578125 19.859375 -20.546875 C 19.265625 -21.515625 18.429688 -22.304688 17.359375 -22.921875 C 16.296875 -23.546875 14.960938 -23.859375 13.359375 -23.859375 C 12.003906 -23.859375 10.835938 -23.597656 9.859375 -23.078125 C 8.890625 -22.554688 8.082031 -21.863281 7.4375 -21 C 6.789062 -20.132812 6.269531 -19.175781 5.875 -18.125 C 5.488281 -17.082031 5.21875 -16.015625 5.0625 -14.921875 C 4.90625 -13.835938 4.835938 -12.828125 4.859375 -11.890625 C 4.890625 -10.335938 5.125 -8.875 5.5625 -7.5 C 6.007812 -6.125 6.648438 -4.90625 7.484375 -3.84375 C 8.316406 -2.789062 9.332031 -1.960938 10.53125 -1.359375 C 11.726562 -0.765625 13.09375 -0.46875 14.625 -0.46875 C 15.289062 -0.46875 16.035156 -0.566406 16.859375 -0.765625 C 17.679688 -0.960938 18.507812 -1.285156 19.34375 -1.734375 C 20.175781 -2.179688 20.941406 -2.769531 21.640625 -3.5 C 22.347656 -4.226562 22.898438 -5.128906 23.296875 -6.203125 L 23.765625 -6 C 22.898438 -4.019531 21.582031 -2.410156 19.8125 -1.171875 C 18.039062 0.0546875 15.914062 0.671875 13.4375 0.671875 Z M 13.4375 0.671875 "/></g></g></g><g fill="#000000" fill-opacity="1"><g transform="translate(191.821476, 87.236151)"><g><path d="M 1 -0.328125 C 1.957031 -0.328125 2.648438 -0.613281 3.078125 -1.1875 C 3.515625 -1.769531 3.785156 -2.71875 3.890625 -4.03125 C 4.003906 -5.34375 4.0625 -7.085938 4.0625 -9.265625 L 4.0625 -14.328125 C 4.0625 -16.523438 4.003906 -18.273438 3.890625 -19.578125 C 3.785156 -20.878906 3.515625 -21.816406 3.078125 -22.390625 C 2.648438 -22.972656 1.957031 -23.265625 1 -23.265625 L 1 -23.59375 L 4.796875 -23.59375 C 5.710938 -23.59375 6.726562 -23.644531 7.84375 -23.75 C 8.96875 -23.863281 10.050781 -23.976562 11.09375 -24.09375 C 12.144531 -24.207031 12.976562 -24.265625 13.59375 -24.265625 C 14.195312 -24.265625 14.878906 -24.222656 15.640625 -24.140625 C 16.410156 -24.066406 17.195312 -23.898438 18 -23.640625 C 18.800781 -23.390625 19.539062 -22.992188 20.21875 -22.453125 C 20.894531 -21.921875 21.441406 -21.203125 21.859375 -20.296875 C 22.285156 -19.390625 22.5 -18.234375 22.5 -16.828125 L 22.5 -9.265625 C 22.5 -7.085938 22.550781 -5.34375 22.65625 -4.03125 C 22.769531 -2.71875 23.039062 -1.769531 23.46875 -1.1875 C 23.90625 -0.613281 24.601562 -0.328125 25.5625 -0.328125 L 25.5625 0 L 16.5625 0 L 16.5625 -0.328125 C 17.519531 -0.328125 18.210938 -0.613281 18.640625 -1.1875 C 19.078125 -1.769531 19.347656 -2.71875 19.453125 -4.03125 C 19.566406 -5.34375 19.625 -7.085938 19.625 -9.265625 C 19.625 -9.460938 19.625 -9.820312 19.625 -10.34375 C 19.625 -10.863281 19.625 -11.453125 19.625 -12.109375 C 19.625 -12.765625 19.617188 -13.398438 19.609375 -14.015625 C 19.597656 -14.628906 19.59375 -15.132812 19.59375 -15.53125 C 19.59375 -15.925781 19.59375 -16.125 19.59375 -16.125 C 19.59375 -17.613281 19.410156 -18.835938 19.046875 -19.796875 C 18.679688 -20.753906 18.203125 -21.503906 17.609375 -22.046875 C 17.023438 -22.585938 16.394531 -22.984375 15.71875 -23.234375 C 15.039062 -23.492188 14.378906 -23.648438 13.734375 -23.703125 C 13.085938 -23.765625 12.539062 -23.796875 12.09375 -23.796875 C 11.25 -23.796875 10.375 -23.707031 9.46875 -23.53125 C 8.570312 -23.351562 7.726562 -23.117188 6.9375 -22.828125 L 6.9375 -9.265625 C 6.9375 -7.085938 6.988281 -5.34375 7.09375 -4.03125 C 7.207031 -2.71875 7.476562 -1.769531 7.90625 -1.1875 C 8.34375 -0.613281 9.039062 -0.328125 10 -0.328125 L 10 0 L 1 0 Z M 1 -0.328125 "/></g></g></g></svg>